<?xml version="1.0" standalone="no"?>
<!DOCTYPE svg PUBLIC "-//W3C//DTD SVG 1.0//EN" "http://www.w3.org/TR/2001/REC-SVG-20010904/DTD/svg10.dtd">
<svg xmlns="http://www.w3.org/2000/svg" xmlns:xlink="http://www.w3.org/1999/xlink" id="body_1" width="1024" height="768">

<g transform="matrix(1.5 0 0 1.5 128.00003 -0)">
	<g>
		<g>
			<g>
                <path d="M299 432L45 432C 44.448 432 44 431.552 44 431L44 431L44 81C 44 80.448 44.448 80 45 80L45 80L299 80C 299.552 80 300 80.448 300 81L300 81L300 431C 300 431.552 299.552 432 299 432z" stroke="none" fill="#5C546A" fill-rule="nonzero" />
			</g>
		</g>
		<g>
			<g>
                <path d="M116 24L204 24L204 56L116 56z" stroke="none" fill="#5C546A" fill-rule="nonzero" />
			</g>
		</g>
		<g>
			<g>
                <path d="M140 440L204 440L204 504L140 504z" stroke="none" fill="#5C546A" fill-rule="nonzero" />
			</g>
		</g>
		<g>
			<g>
                <path d="M276 0L68 0C 45.945 0 28 17.945 28 40L28 40L28 472C 28 494.055 45.945 512 68 512L68 512L276 512C 298.055 512 316 494.055 316 472L316 472L316 40C 316 17.945 298.055 0 276 0zM156 32L188 32C 192.422 32 196 35.578 196 40C 196 44.422 192.422 48 188 48L188 48L156 48C 151.578 48 148 44.422 148 40C 148 35.578 151.578 32 156 32zM126.32 34.32C 129.195 31.437 134.718 31.359 137.679 34.32C 139.117 35.836 139.99901 37.836 139.99901 40C 139.99901 42.156 139.11601 44.156 137.679 45.68C 136.156 47.117 134.156 48 132 48C 129.836 48 127.836 47.117 126.32 45.68C 124.875 44.156 124 42.156 124 40C 124 37.836 124.875 35.836 126.32 34.32zM172 496C 158.77 496 148 485.23 148 472C 148 458.77 158.77 448 172 448C 185.23 448 196 458.77 196 472C 196 485.23 185.23 496 172 496zM292 432L52 432C 47.582 432 44 428.418 44 424L44 424L44 88C 44 83.582 47.582 80 52 80L52 80L292 80C 296.418 80 300 83.582 300 88L300 88L300 424C 300 428.418 296.418 432 292 432z" stroke="none" fill="#8A8895" fill-rule="nonzero" />
			</g>
		</g>
		<g>
            <path d="M452 408L100 408C 82.326996 408 68 393.673 68 376L68 376L68 136C 68 118.326996 82.326996 104 100 104L100 104L452 104C 469.673 104 484 118.326996 484 136L484 136L484 376C 484 393.673 469.673 408 452 408z" stroke="none" fill="#5D647F" fill-rule="nonzero" />
		</g>
		<g>
            <path d="M212 232L132 232C 123.163 232 116 224.837 116 216L116 216L116 168C 116 159.163 123.163 152 132 152L132 152L212 152C 220.837 152 228 159.163 228 168L228 168L228 216C 228 224.837 220.837 232 212 232z" stroke="none" fill="#FFD100" fill-rule="nonzero" />
		</g>
		<g>
            <path d="M156 320L132 320C 123.163 320 116 312.837 116 304C 116 295.163 123.163 288 132 288L132 288L156 288C 164.837 288 172 295.163 172 304C 172 312.837 164.837 320 156 320z" stroke="none" fill="#B8BAC0" fill-rule="nonzero" />
		</g>
		<g>
            <path d="M244 320L220 320C 211.163 320 204 312.837 204 304C 204 295.163 211.163 288 220 288L220 288L244 288C 252.837 288 260 295.163 260 304C 260 312.837 252.837 320 244 320z" stroke="none" fill="#B8BAC0" fill-rule="nonzero" />
		</g>
		<g>
            <path d="M332 320L308 320C 299.163 320 292 312.837 292 304C 292 295.163 299.163 288 308 288L308 288L332 288C 340.837 288 348 295.163 348 304C 348 312.837 340.837 320 332 320z" stroke="none" fill="#B8BAC0" fill-rule="nonzero" />
		</g>
		<g>
            <path d="M420 320L396 320C 387.163 320 380 312.837 380 304C 380 295.163 387.163 288 396 288L396 288L420 288C 428.837 288 436 295.163 436 304C 436 312.837 428.837 320 420 320z" stroke="none" fill="#B8BAC0" fill-rule="nonzero" />
		</g>
		<g>
			<g>
                <path d="M252.8 368L123.2 368C 119.21999 368 116 364.418 116 360C 116 355.582 119.22 352 123.2 352L123.2 352L252.8 352C 256.78 352 260 355.582 260 360C 260 364.418 256.78 368 252.8 368z" stroke="none" fill="#8A8895" fill-rule="nonzero" />
			</g>
		</g>
		<g>
			<g>
                <path d="M340 368L284 368C 279.578 368 276 364.418 276 360C 276 355.582 279.578 352 284 352L284 352L340 352C 344.422 352 348 355.582 348 360C 348 364.418 344.422 368 340 368z" stroke="none" fill="#8A8895" fill-rule="nonzero" />
			</g>
		</g>
		<g>
            <path d="M372 216.005C 364.702 225.718 353.085 232 340.001 232C 317.91 232 300.001 214.091 300.001 192C 300.001 169.909 317.91 152 340.001 152C 353.075 152 364.683 158.272 371.982 167.971" stroke="none" fill="#FF4F19" fill-rule="nonzero" />
		</g>
		<g>
            <path d="M436 192C 436.00003 203.0457 432.0948 212.47379 424.28427 220.28427C 416.47382 228.09476 407.04572 232 396 232C 384.9543 232 375.52625 228.09476 367.71573 220.28427C 359.90527 212.47379 356 203.0457 356 192C 356 180.95432 359.90527 171.52621 367.71573 163.71573C 375.52625 155.90524 384.9543 152 396 152C 407.04572 152 416.47382 155.90524 424.28427 163.71573C 432.0948 171.52621 436.00003 180.95432 436 192C 436.00003 192.46547 435.9919 192.9308 435.97565 193.39598" stroke="none" fill="#FFD100" fill-rule="nonzero" />
		</g>
		<g>
            <path d="M156 184L156 152L140 152L140 232L156 232L156 200L228 200L228 184L156 184" stroke="none" fill="#FF9500" fill-rule="nonzero" />
		</g>
	</g>
	<g>
	</g>
	<g>
	</g>
	<g>
	</g>
	<g>
	</g>
	<g>
	</g>
	<g>
	</g>
	<g>
	</g>
	<g>
	</g>
	<g>
	</g>
	<g>
	</g>
	<g>
	</g>
	<g>
	</g>
	<g>
	</g>
	<g>
	</g>
	<g>
	</g>
</g>
</svg>